<svg viewBox="0 0 96 96" xmlns="http://www.w3.org/2000/svg"><defs><linearGradient id="fvG" x1="0" y1="0" x2="0" y2="1"><stop offset="0" stop-color="#f6e3ab"/><stop offset="0.55" stop-color="#d4af61"/><stop offset="1" stop-color="#93712f"/></linearGradient><linearGradient id="fvW" x1="0" y1="0" x2="1" y2="0"><stop offset="0" stop-color="#93712f"/><stop offset="1" stop-color="#e9c87e"/></linearGradient></defs><rect width="96" height="96" rx="20" fill="#0b0f0e"/><g transform="translate(0 22)"><rect x="35.5" y="2.6" width="11" height="5" rx="1.6" fill="url(#fvG)"/><rect x="37.8" y="4" width="2.1" height="2.2" fill="#0b0f0e" opacity="0.85"/><rect x="42.1" y="4" width="2.1" height="2.2" fill="#0b0f0e" opacity="0.85"/><path d="M4 27 C7 24.5 11 22.8 16 22 C20 21.4 24 18 27 14 C30 10 36 8 42 8 C56 8 72 12 84 17 L92 15.5 C90 19 86 21.5 80 23 C60 28.5 30 30 12 29 C8 28.7 5 28 4 27 Z" fill="url(#fvG)"/><path d="M34 12 C40 10.2 48 10.2 58 12.8 C64 14.4 70 16.4 74 18 L69 19.6 C60 16 48 14.2 38 15.4 C36 14.2 35 13 34 12 Z" fill="#0b0f0e"/><circle cx="22" cy="29" r="4.5" fill="#0b0f0e"/><circle cx="22" cy="29" r="2.2" fill="none" stroke="url(#fvG)" stroke-width="1.5"/><circle cx="68" cy="27" r="4" fill="#0b0f0e"/><circle cx="68" cy="27" r="1.9" fill="none" stroke="url(#fvG)" stroke-width="1.4"/><ellipse cx="8" cy="25" rx="1.8" ry="1.2" fill="#f6e3ab"/><path d="M6 33 C30 38.5 62 38 90 30 C64 41 30 42 6 33 Z" fill="url(#fvW)"/><path d="M20 43.5 C40 46.5 62 45.5 80 40 C60 48 36 48.5 20 43.5 Z" fill="#93712f" opacity="0.65"/></g></svg>
